<?xml version="1.0" encoding="utf-8"?>
<!-- Generator: Adobe Illustrator 22.1.0, SVG Export Plug-In . SVG Version: 6.00 Build 0)  -->
<svg version="1.1" id="Layer_1" xmlns="http://www.w3.org/2000/svg" xmlns:xlink="http://www.w3.org/1999/xlink" x="0px" y="0px"
	 viewBox="0 0 699.5 699.5" style="enable-background:new 0 0 699.5 699.5;" xml:space="preserve">
<style type="text/css">
	.st0{fill:#FEFEFE;}
	.st1{fill:#7C0605;}
</style>
<g>
	<circle class="st0" cx="349.7" cy="349.7" r="349.7"/>
	<g>
		<path class="st1" d="M349.2,475.8c41,0,82,0,122.9,0c4,0,8.7-1.3,8.5,5.7c-0.1,4.9-0.7,8-6.7,7.6c-7.2-0.5-5,5.3-5,8.9
			c-0.1,51.6-0.1,103.3-0.1,154.9c0,20.7,0,20.7-20.2,20.7c-68.7,0-137.5-0.2-206.2,0.2c-8.2,0-10.2-2.2-10.1-10.1
			c0.3-54.9,0.1-109.7,0.2-164.6c0-6.3,0.3-11.8-8.7-10.2c-4.7,0.8-5.1-2.4-4.9-6c0.1-3.3-0.2-6.7,4.5-6.9c2.6-0.1,5.2-0.1,7.7-0.1
			C270.5,475.8,309.8,475.8,349.2,475.8C349.2,475.8,349.2,475.8,349.2,475.8z M287.9,580.3c0-16.5-0.4-32.9,0.2-49.4
			c0.3-7.5-3.2-8.3-9.2-8.3c-5.8,0-8.6,1-8.6,7.9c0.3,33.2,0.4,66.5,0,99.7c-0.1,7.4,3,8.2,9.2,8.4c7,0.2,8.7-2.4,8.6-9
			C287.6,613.3,287.9,596.8,287.9,580.3z M359.9,580.8C359.9,580.8,359.9,580.8,359.9,580.8c0.1-16.8-0.3-33.5,0.2-50.3
			c0.2-7.1-3-7.8-8.7-7.8c-5.3,0.1-9.1,0.1-9,7.4c0.3,33.5,0.3,67.1-0.1,100.6c-0.1,6.9,2.9,8,8.7,7.8c5.2-0.2,9.2,0,9-7.5
			C359.5,614.3,359.9,597.5,359.9,580.8z M433.4,581.7c0-17.1-0.3-34.2,0.1-51.2c0.2-7-2.8-8.2-8.7-7.7c-4.8,0.4-9.4-0.8-9.3,7.1
			c0.4,33.8,0.4,67.7,0,101.5c-0.1,7.7,4.1,7.2,9.1,7.3c5.4,0.1,9.1-0.2,8.9-7.6C433.1,614.6,433.4,598.1,433.4,581.7z"/>
		<path class="st1" d="M350.8,259.9c-30.7,0-61.3,0.1-92-0.1c-3.3,0-7.8,1.9-9.8-1.7c-1.9-3.5,2.5-5.5,4.1-8
			c13.9-21.3,28-42.6,42.2-63.7c2.3-3.5,3-6.9,2.9-10.9c-0.1-14.8,0-29.7,0-44.5c0-4.1-0.3-8,5.7-7.5c3.7,0.3,4.8-2.6,5.9-5.4
			c12.1-31.3,24.1-62.5,36.3-93.7c1.2-3,0.6-7.8,4.6-8.4c5.6-0.9,4.4,5.2,5.7,8c14.2,29.1,24.4,59.8,36.4,89.8
			c1.8,4.6,2.5,10,9.7,10.2c4,0.1,2.4,4.7,2.5,7.2c0.2,14.8,0.1,29.7,0,44.5c0,4.2,0.4,8.2,3,11.9c14.5,21.4,28.8,42.8,43.1,64.3
			c1.4,2,4.4,3.7,2.6,6.6c-1.6,2.6-4.7,1.4-7.1,1.4C414.7,259.9,382.8,259.9,350.8,259.9z"/>
		<path class="st1" d="M421.7,302.8c-2-0.9-4.1-1.7-6.1-2.7c-45-24.2-89.9-23.6-133,3.2c-49.8,31-54.7,93.8-11.6,132.5
			c45.3,40.7,124.2,38.2,166.8-5.2c26.3-26.9,31.4-63.9,13.2-96C443.7,321.7,432.7,312.3,421.7,302.8"/>
		<path class="st1" d="M425.8,279.8c12.3-0.2,24.5-0.1,36.8-0.6c5-0.2,6.8,1.5,6.8,6.6c-0.2,59.4-0.3,118.8-0.1,178.2
			c0,6.2-2.2,7.5-7.9,7.5c-73.6-0.1-147.3-0.2-220.9,0c-6.1,0-7.6-2-7.5-7.8c0.2-59.1,0.1-118.2,0.1-177.3c0-4.3,0-7.3,5.9-7.3"/>
		<path class="st1" d="M460.2,340.8"/>
		<path class="st1" d="M349.5,263.7c39.4,0,78.7,0,118.1,0c2.3,0,4.5-0.1,6.8,0.1c2.8,0.3,4.8,2.1,5.4,4.8c0.8,3.2-2.2,4.4-4.1,5.9
			c-2.8,2.2-6.2,1.1-9.4,1.1c-77.7,0-155.5,0-233.2,0c-1.6,0-3.2,0-4.8,0c-4.7-0.1-9.1-2.6-8.8-6.9c0.2-4.1,5-4.9,9.2-4.9
			C268.9,263.8,309.2,263.7,349.5,263.7z"/>
		<path class="st0" d="M421.7,302.8c11,9.5,21.9,18.9,29.2,31.8c18.2,32.2,13.2,69.2-13.2,96c-42.6,43.4-121.4,45.9-166.8,5.2
			c-43.1-38.7-38.2-101.5,11.6-132.5c43.1-26.8,88.1-27.4,133-3.2C417.6,301.1,419.7,301.9,421.7,302.8
			C421.7,302.8,421.7,302.8,421.7,302.8z M338.8,346.7c0,11.6,0.2,23.2-0.1,34.9c-0.1,4.8,1.1,7.1,6.4,6.9
			c13.6-0.4,27.1-0.4,40.7-0.3c4.4,0,5.4-1.9,5.5-5.8c0.1-4.3-1.6-5.7-5.7-5.5c-7.4,0.2-14.9-0.6-22.3,0.2
			c-9,0.9-12.4-1.4-11.9-11.3c0.9-17.7,0.2-35.5,0.3-53.3c0-4.4,0.4-8.1-6.2-8.2c-7-0.1-6.8,3.7-6.8,8.6
			C338.9,324.1,338.8,335.4,338.8,346.7z"/>
		<path class="st1" d="M338.8,346.7c0-11.3,0.1-22.6,0-33.9c-0.1-4.9-0.2-8.7,6.8-8.6c6.5,0.1,6.2,3.8,6.2,8.2
			c-0.1,17.8,0.7,35.5-0.3,53.3c-0.5,9.9,2.9,12.2,11.9,11.3c7.3-0.7,14.8,0,22.3-0.2c4.1-0.1,5.8,1.3,5.7,5.5
			c-0.1,3.9-1.1,5.8-5.5,5.8c-13.6-0.1-27.1,0-40.7,0.3c-5.3,0.1-6.5-2.1-6.4-6.9C339,369.9,338.8,358.3,338.8,346.7z"/>
	</g>
</g>
</svg>
